<?xml version="1.0" encoding="UTF-8" standalone="no"?><!DOCTYPE svg PUBLIC "-//W3C//DTD SVG 1.1//EN" "http://www.w3.org/Graphics/SVG/1.1/DTD/svg11.dtd"><svg width="100%" height="100%" viewBox="0 0 1880 405" version="1.1" xmlns="http://www.w3.org/2000/svg" xmlns:xlink="http://www.w3.org/1999/xlink" xml:space="preserve" xmlns:serif="http://www.serif.com/" style="fill-rule:evenodd;clip-rule:evenodd;stroke-linejoin:round;stroke-miterlimit:2;"><g><g><path d="M217.844,48.717l-60.33,140.191c-1.157,2.025 -1.157,4.051 0,6.076l59.896,139.323c0.579,1.157 0.506,2.315 -0.217,3.472c-0.723,1.157 -1.808,1.736 -3.255,1.736l-45.139,0c-1.736,0 -2.894,-0.723 -3.472,-2.17l-34.722,-79.861c-0.289,-0.868 -0.796,-1.302 -1.519,-1.302c-0.723,0 -1.23,0.434 -1.519,1.302l-34.722,79.861c-0.579,1.447 -1.736,2.17 -3.472,2.17l-45.139,0c-1.447,0 -2.532,-0.579 -3.255,-1.736c-0.723,-1.157 -0.796,-2.315 -0.217,-3.472l59.896,-139.323c1.157,-2.025 1.157,-4.051 0,-6.076l-60.33,-140.191c-0.579,-1.157 -0.506,-2.315 0.217,-3.472c0.723,-1.157 1.808,-1.736 3.255,-1.736l45.139,0c1.736,0 3.038,0.723 3.906,2.17l34.722,80.729c0.289,0.579 0.796,0.868 1.519,0.868c0.723,-0 1.23,-0.289 1.519,-0.868l34.722,-80.729c0.868,-1.447 2.17,-2.17 3.906,-2.17l45.139,0c1.447,0 2.532,0.579 3.255,1.736c0.723,1.157 0.796,2.315 0.217,3.472Z" style="fill:#fff;fill-rule:nonzero;"/><path d="M394.059,334.742c0.289,1.447 0.072,2.604 -0.651,3.472c-0.723,0.868 -1.664,1.302 -2.821,1.302l-42.535,0c-2.025,0 -3.328,-1.013 -3.906,-3.038l-7.813,-44.271c-0.289,-2.025 -1.591,-3.038 -3.906,-3.038l-41.233,0c-2.025,0 -3.183,1.013 -3.472,3.038l-8.247,44.271c-0.289,2.025 -1.591,3.038 -3.906,3.038l-42.101,0c-1.157,0 -2.17,-0.434 -3.038,-1.302c-0.868,-0.868 -1.157,-2.025 -0.868,-3.472l52.518,-288.195c0.289,-2.315 1.591,-3.472 3.906,-3.472l52.084,0c2.025,-0 3.328,1.157 3.906,3.472l52.084,288.195Zm-72.049,-95.052c1.157,0 2.17,-0.506 3.038,-1.519c0.868,-1.013 1.157,-2.098 0.868,-3.255l-9.983,-55.556c-0.579,-2.315 -1.953,-3.472 -4.123,-3.472c-2.17,0 -3.4,1.157 -3.689,3.472l-9.983,55.556c-0.289,1.157 -0.072,2.242 0.651,3.255c0.723,1.013 1.664,1.519 2.821,1.519l20.399,0Z" style="fill:#fff;fill-rule:nonzero;"/></g><path d="M489.043,175.697l30.139,30.625c1.944,1.944 1.944,3.889 0,5.833l-33.056,33.056c-1.944,1.944 -4.051,1.944 -6.319,0l-68.056,-69.028c-2.269,-2.269 -2.269,-4.375 0,-6.319l68.056,-69.514c1.944,-2.269 4.051,-2.269 6.319,0l33.056,32.57c2.269,1.944 2.269,3.889 0,5.833l-30.139,31.111c-1.944,1.944 -1.944,3.889 0,5.833Z" style="fill:#22c55e;fill-rule:nonzero;"/><path d="M660.779,19.829c1.25,0 2.344,0.469 3.281,1.406c0.938,0.938 1.25,2.188 0.938,3.75l-66.562,311.25c-0.625,2.188 -2.031,3.281 -4.219,3.281l-45.938,0c-1.25,0 -2.344,-0.547 -3.281,-1.641c-0.938,-1.094 -1.25,-2.266 -0.938,-3.516l66.562,-311.25c0.625,-2.188 2.031,-3.281 4.219,-3.281l45.938,0Z" style="fill:#22c55e;fill-rule:nonzero;"/><g><path d="M891.492,43.075c2.604,-0 3.906,1.302 3.906,3.906l0,288.629c0,2.604 -1.302,3.906 -3.906,3.906l-41.667,0c-2.604,0 -3.906,-1.302 -3.906,-3.906l0,-100.695c0,-0.868 -0.434,-1.374 -1.302,-1.519c-0.868,-0.145 -1.447,0.217 -1.736,1.085l-25.608,101.997c-0.579,2.025 -1.881,3.038 -3.906,3.038l-36.024,0c-2.025,0 -3.328,-1.013 -3.906,-3.038l-23.438,-95.92c-0.289,-0.868 -0.868,-1.23 -1.736,-1.085c-0.868,0.145 -1.302,0.651 -1.302,1.519l0,94.618c0,2.604 -1.302,3.906 -3.906,3.906l-41.667,0c-2.604,0 -3.906,-1.302 -3.906,-3.906l0,-288.629c0,-2.604 1.302,-3.906 3.906,-3.906l48.177,0c2.025,-0 3.183,1.013 3.472,3.038l41.233,167.535c0,0.868 0.434,1.302 1.302,1.302c0.868,0 1.447,-0.434 1.736,-1.302l42.101,-167.535c0.579,-2.025 1.881,-3.038 3.906,-3.038l48.177,0Z" style="fill:#fff;fill-rule:nonzero;"/><path d="M1087.673,334.742c0.289,1.447 0.072,2.604 -0.651,3.472c-0.723,0.868 -1.664,1.302 -2.821,1.302l-42.535,0c-2.025,0 -3.328,-1.013 -3.906,-3.038l-7.813,-44.271c-0.289,-2.025 -1.591,-3.038 -3.906,-3.038l-41.233,0c-2.025,0 -3.183,1.013 -3.472,3.038l-8.247,44.271c-0.289,2.025 -1.591,3.038 -3.906,3.038l-42.101,0c-1.157,0 -2.17,-0.434 -3.038,-1.302c-0.868,-0.868 -1.157,-2.025 -0.868,-3.472l52.518,-288.195c0.289,-2.315 1.591,-3.472 3.906,-3.472l52.083,0c2.025,-0 3.328,1.157 3.906,3.472l52.084,288.195Zm-72.049,-95.052c1.157,0 2.17,-0.506 3.038,-1.519c0.868,-1.013 1.157,-2.098 0.868,-3.255l-9.983,-55.556c-0.579,-2.315 -1.953,-3.472 -4.123,-3.472c-2.17,0 -3.4,1.157 -3.689,3.472l-9.983,55.556c-0.289,1.157 -0.072,2.242 0.651,3.255c0.723,1.013 1.664,1.519 2.821,1.519l20.399,0Z" style="fill:#fff;fill-rule:nonzero;"/><path d="M1214.409,140.297c-0.868,0 -1.736,-0.362 -2.604,-1.085c-0.868,-0.723 -1.302,-1.664 -1.302,-2.821l0,-19.531c0,-6.655 -2.315,-12.37 -6.944,-17.144c-4.63,-4.774 -10.272,-7.161 -16.927,-7.161l-0.868,0c-6.655,0 -12.37,2.387 -17.144,7.161c-4.774,4.774 -7.161,10.489 -7.161,17.144l0,148.872c0,6.655 2.387,12.37 7.161,17.144c4.774,4.774 10.489,7.161 17.144,7.161l0.868,0c6.655,0 12.297,-2.387 16.927,-7.161c4.63,-4.774 6.944,-10.489 6.944,-17.144l0,-47.309c0,-2.604 -1.157,-3.906 -3.472,-3.906l-16.927,0c-2.604,0 -3.906,-1.302 -3.906,-3.906l0,-41.667c0,-2.604 1.302,-3.906 3.906,-3.906l65.972,0c2.604,0 3.906,1.302 3.906,3.906l0,96.789c0,20.544 -7.161,37.978 -21.484,52.301c-14.323,14.323 -31.756,21.484 -52.301,21.484l-0.434,0c-20.544,0 -37.978,-7.161 -52.301,-21.484c-14.323,-14.323 -21.484,-31.756 -21.484,-52.301l0,-148.872c0,-20.255 7.161,-37.616 21.484,-52.084c14.323,-14.468 31.756,-21.701 52.301,-21.701l0.434,0c20.544,-0 37.978,7.234 52.301,21.701c14.323,14.468 21.484,31.829 21.484,52.084l0,19.531c0,2.604 -1.302,3.906 -3.906,3.906l-41.667,0Z" style="fill:#fff;fill-rule:nonzero;"/><path d="M1345.052,339.517l-41.667,0c-2.604,0 -3.906,-1.302 -3.906,-3.906l0,-288.629c0,-2.315 1.302,-3.472 3.906,-3.472l41.667,0c2.604,0 3.906,1.157 3.906,3.472l0,288.629c0,2.604 -1.302,3.906 -3.906,3.906Z" style="fill:#fff;fill-rule:nonzero;"/><path d="M1536.459,43.509c1.157,0 2.098,0.362 2.821,1.085c0.723,0.723 1.085,1.664 1.085,2.821l0,288.195c0,2.604 -1.302,3.906 -3.906,3.906l-46.875,0c-2.025,0 -3.328,-1.013 -3.906,-3.038l-40.799,-131.511c-0.289,-0.868 -0.868,-1.23 -1.736,-1.085c-0.868,0.145 -1.302,0.651 -1.302,1.519l0,130.209c0,2.604 -1.302,3.906 -3.906,3.906l-41.667,0c-2.604,0 -3.906,-1.302 -3.906,-3.906l0,-288.629c0,-2.315 1.302,-3.472 3.906,-3.472l46.875,0c2.025,0 3.328,0.868 3.906,2.604l40.799,131.945c0.289,0.579 0.868,0.868 1.736,0.868c0.868,0 1.447,-0.579 1.736,-1.736l0,-130.209c0,-2.315 1.302,-3.472 3.906,-3.472l41.233,0Z" style="fill:#fff;fill-rule:nonzero;"/><path d="M1637.588,92.554c-2.604,0 -3.906,1.302 -3.906,3.906l0,64.67c0,2.604 1.302,3.906 3.906,3.906l65.972,0c2.604,0 3.906,1.302 3.906,3.906l0,41.667c0,2.604 -1.302,3.906 -3.906,3.906l-65.972,0c-2.604,0 -3.906,1.302 -3.906,3.906l0,67.709c0,2.604 1.302,3.906 3.906,3.906l89.844,0c2.604,0 3.906,1.302 3.906,3.906l0,41.667c0,2.604 -1.302,3.906 -3.906,3.906l-139.323,0c-2.604,0 -3.906,-1.302 -3.906,-3.906l0,-288.629c0,-2.604 1.302,-3.906 3.906,-3.906l139.323,0c2.604,-0 3.906,1.302 3.906,3.906l0,41.667c0,2.604 -1.302,3.906 -3.906,3.906l-89.844,0Z" style="fill:#fff;fill-rule:nonzero;"/></g><path d="M1864.149,169.377c1.944,1.944 1.944,3.889 0,5.833l-68.056,69.514c-2.269,2.269 -4.375,2.269 -6.319,0l-33.056,-32.57c-2.269,-1.944 -2.269,-3.889 0,-5.833l30.139,-30.625c1.944,-2.269 1.944,-4.375 0,-6.319l-30.139,-30.139c-1.944,-2.269 -1.944,-4.375 0,-6.319l33.056,-32.57c1.944,-2.269 4.051,-2.269 6.319,0l68.056,69.028Z" style="fill:#22c55e;fill-rule:nonzero;"/></g></svg>